<mxfile host="app.diagrams.net" modified="2024-03-17T18:36:12.538Z" agent="Mozilla/5.0 (Windows NT 10.0; Win64; x64) AppleWebKit/537.36 (KHTML, like Gecko) Chrome/122.0.0.0 Safari/537.36 Edg/122.0.0.0" etag="cWqxXlvhLe1bYmKPd-yV" version="24.0.7" type="device">
  <diagram name="Page-1" id="03018318-947c-dd8e-b7a3-06fadd420f32">
    <mxGraphModel dx="1447" dy="785" grid="1" gridSize="10" guides="1" tooltips="1" connect="1" arrows="1" fold="1" page="1" pageScale="1" pageWidth="1100" pageHeight="850" background="#ffffff" math="0" shadow="0">
      <root>
        <mxCell id="0" />
        <mxCell id="1" parent="0" />
        <mxCell id="677b7b8949515195-2" value="Giphy" style="whiteSpace=wrap;html=1;rounded=0;shadow=0;labelBackgroundColor=none;strokeWidth=1;fontFamily=Verdana;fontSize=28;align=center;comic=1;" parent="1" vertex="1">
          <mxGeometry y="5" width="190" height="40" as="geometry" />
        </mxCell>
        <mxCell id="677b7b8949515195-3" value="Search" style="strokeWidth=1;shadow=0;dashed=0;align=center;html=1;shape=mxgraph.mockup.forms.searchBox;strokeColor=#999999;mainText=;strokeColor2=#008cff;fontColor=#666666;fontSize=17;align=left;spacingLeft=3;rounded=0;labelBackgroundColor=none;comic=1;" parent="1" vertex="1">
          <mxGeometry y="140" width="230" height="70" as="geometry" />
        </mxCell>
        <mxCell id="hyE2RU9J0_CmFcboUBjs-19" value="" style="verticalLabelPosition=bottom;verticalAlign=top;html=1;shape=mxgraph.basic.patternFillRect;fillStyle=diag;step=5;fillStrokeWidth=0.2;fillStrokeColor=#dddddd;" parent="1" vertex="1">
          <mxGeometry y="240" width="550" height="610" as="geometry" />
        </mxCell>
        <mxCell id="B-K3i70VCUpERA3QXpkE-1" value="Home" style="rounded=1;whiteSpace=wrap;html=1;" vertex="1" parent="1">
          <mxGeometry y="40" width="87.5" height="50" as="geometry" />
        </mxCell>
        <mxCell id="B-K3i70VCUpERA3QXpkE-2" value="About" style="rounded=1;whiteSpace=wrap;html=1;" vertex="1" parent="1">
          <mxGeometry y="90" width="90" height="50" as="geometry" />
        </mxCell>
        <mxCell id="B-K3i70VCUpERA3QXpkE-11" value="Download" style="rounded=1;whiteSpace=wrap;html=1;" vertex="1" parent="1">
          <mxGeometry x="375" y="440" width="100" height="40" as="geometry" />
        </mxCell>
        <mxCell id="B-K3i70VCUpERA3QXpkE-15" value="" style="rounded=1;whiteSpace=wrap;html=1;direction=south;" vertex="1" parent="1">
          <mxGeometry x="10" y="280" width="110" height="150" as="geometry" />
        </mxCell>
        <mxCell id="B-K3i70VCUpERA3QXpkE-16" value="" style="rounded=1;whiteSpace=wrap;html=1;direction=south;" vertex="1" parent="1">
          <mxGeometry x="130" y="280" width="110" height="150" as="geometry" />
        </mxCell>
        <mxCell id="B-K3i70VCUpERA3QXpkE-17" value="" style="rounded=1;whiteSpace=wrap;html=1;direction=south;" vertex="1" parent="1">
          <mxGeometry x="250" y="280" width="110" height="150" as="geometry" />
        </mxCell>
        <mxCell id="B-K3i70VCUpERA3QXpkE-18" value="" style="rounded=1;whiteSpace=wrap;html=1;direction=south;" vertex="1" parent="1">
          <mxGeometry x="370" y="280" width="110" height="150" as="geometry" />
        </mxCell>
        <mxCell id="B-K3i70VCUpERA3QXpkE-19" value="Download" style="rounded=1;whiteSpace=wrap;html=1;" vertex="1" parent="1">
          <mxGeometry x="255" y="440" width="100" height="40" as="geometry" />
        </mxCell>
        <mxCell id="B-K3i70VCUpERA3QXpkE-20" value="Download" style="rounded=1;whiteSpace=wrap;html=1;" vertex="1" parent="1">
          <mxGeometry x="135" y="440" width="100" height="40" as="geometry" />
        </mxCell>
        <mxCell id="B-K3i70VCUpERA3QXpkE-21" value="Download" style="rounded=1;whiteSpace=wrap;html=1;" vertex="1" parent="1">
          <mxGeometry x="15" y="440" width="100" height="40" as="geometry" />
        </mxCell>
      </root>
    </mxGraphModel>
  </diagram>
</mxfile>
